<svg width="32" height="30" viewBox="0 0 32 30" fill="none" xmlns="http://www.w3.org/2000/svg">
<path fill-rule="evenodd" clip-rule="evenodd" d="M21.6439 29.6852C21.743 29.785 21.8607 29.8642 21.9903 29.9182C22.1198 29.9722 22.2588 30 22.3991 30C22.5394 30 22.6783 29.9722 22.8079 29.9182C22.9374 29.8642 23.0551 29.785 23.1542 29.6852L31.6872 21.1144C31.8875 20.9132 32 20.6403 32 20.3558C32 20.0713 31.8875 19.7985 31.6872 19.5973C31.4869 19.3961 31.2153 19.2831 30.932 19.2831C30.6488 19.2831 30.3771 19.3961 30.1769 19.5973L23.4657 26.3405V5.3568C23.4657 3.93609 22.9038 2.57357 21.9036 1.56897C20.9035 0.564376 19.547 0 18.1326 0H1.06662C0.783735 0 0.512434 0.112875 0.312403 0.313794C0.112373 0.514713 0 0.787218 0 1.07136C0 1.3555 0.112373 1.62801 0.312403 1.82893C0.512434 2.02985 0.783735 2.14272 1.06662 2.14272H18.1326C18.9812 2.14272 19.7951 2.48135 20.3952 3.0841C20.9953 3.68686 21.3324 4.50437 21.3324 5.3568V26.3405L14.6213 19.5973C14.421 19.3961 14.1493 19.2831 13.8661 19.2831C13.5828 19.2831 13.3112 19.3961 13.1109 19.5973C12.9106 19.7985 12.7981 20.0713 12.7981 20.3558C12.7981 20.6403 12.9106 20.9132 13.1109 21.1144L21.6439 29.6852Z" fill="#C794C2"/>
</svg>
