<svg width="48" height="46" viewBox="0 0 48 46" fill="none" xmlns="http://www.w3.org/2000/svg">
<path d="M28.4284 38.5911C36.8323 38.5911 41.0354 38.5911 43.6451 35.8762C46.257 33.1637 46.257 28.795 46.257 20.0598C46.257 11.3246 46.257 6.95591 43.6451 4.24339C41.0354 1.52856 36.8323 1.52856 28.4284 1.52856H19.5141C11.1102 1.52856 6.90709 1.52856 4.29743 4.24339C1.68555 6.95591 1.68555 11.3246 1.68555 20.0598C1.68555 28.795 1.68555 33.1637 4.29743 35.8762C5.75269 37.3912 7.70269 38.0606 10.5998 38.3548" stroke="#726C6C" stroke-width="2" stroke-linecap="round" stroke-linejoin="round"/>
<path d="M28.4287 38.5913C25.6742 38.5913 22.6389 39.7495 19.8688 41.2435C15.4161 43.6456 13.1897 44.8478 12.0933 44.0811C10.9968 43.3167 11.2041 40.9424 11.6208 36.1961L11.7144 35.1167" stroke="#726C6C" stroke-width="2" stroke-linecap="round"/>
</svg>
