<svg width="35" height="32" viewBox="0 0 35 32" fill="none" xmlns="http://www.w3.org/2000/svg">
<path d="M3.86007 21.5334L13.3581 21.5334L11.4575 27.0786C11.1156 28.08 11.2882 29.19 11.9229 30.0464C12.5576 30.9028 13.5866 31.415 14.6715 31.415H17.3997C17.9023 31.415 18.3779 31.1976 18.7012 30.8221L26.6557 21.5334H30.9393C32.8061 21.5334 34.3242 20.0561 34.3242 18.2395L34.3242 3.41698C34.3242 1.6004 32.8061 0.123091 30.9393 0.123091L8.41784 0.123091C7.72921 0.125317 7.05747 0.33087 6.49146 0.71257C5.92545 1.09427 5.49181 1.63415 5.24788 2.26083L0.581787 14.3675C0.510941 14.5524 0.474827 14.7482 0.475163 14.9456V18.2395C0.475163 20.0561 1.99329 21.5334 3.86007 21.5334ZM30.9393 18.2395H27.5544L27.5544 3.41698H30.9393V18.2395ZM3.86007 15.2437L8.41784 3.41698L24.1695 3.41698L24.1695 19.2902L16.6076 28.1211H14.6681L17.3117 20.4085C17.3975 20.1609 17.4214 19.897 17.3815 19.6387C17.3416 19.3803 17.2389 19.1349 17.0821 18.9229C16.9252 18.7108 16.7187 18.5382 16.4796 18.4194C16.2405 18.3005 15.9757 18.2389 15.7072 18.2395L3.86007 18.2395V15.2437Z" fill="#9C9C9C"/>
</svg>
