<svg width="22" height="22" viewBox="0 0 22 22" fill="none" xmlns="http://www.w3.org/2000/svg">
<path d="M20.3687 11.489C20.3687 10.7284 20.3057 10.1734 20.1694 9.5979H11.3076V13.0306H16.5093C16.4045 13.8836 15.8381 15.1683 14.5796 16.0316L14.562 16.1465L17.3639 18.2738L17.5581 18.2927C19.3409 16.6791 20.3687 14.305 20.3687 11.489" fill="#4285F4"/>
<path d="M11.3068 20.5335C13.8552 20.5335 15.9946 19.7113 17.5572 18.293L14.5788 16.0318C13.7818 16.5766 12.7121 16.9568 11.3068 16.9568C8.81085 16.9568 6.69243 15.3433 5.93727 13.113L5.82658 13.1222L2.9131 15.332L2.875 15.4358C4.4271 18.4574 7.61525 20.5335 11.3068 20.5335Z" fill="#34A853"/>
<path d="M5.93818 13.113C5.73893 12.5375 5.62361 11.9208 5.62361 11.2836C5.62361 10.6464 5.73893 10.0297 5.9277 9.45418L5.92242 9.33161L2.97242 7.08643L2.8759 7.13142C2.2362 8.3853 1.86914 9.79336 1.86914 11.2836C1.86914 12.7739 2.2362 14.1818 2.8759 15.4357L5.93818 13.113" fill="#FBBC05"/>
<path d="M11.3069 5.61027C13.0792 5.61027 14.2747 6.36053 14.9564 6.98751L17.6202 4.43865C15.9842 2.9484 13.8552 2.03369 11.3069 2.03369C7.61528 2.03369 4.42711 4.10975 2.875 7.13134L5.92681 9.4541C6.69245 7.22387 8.81088 5.61027 11.3069 5.61027" fill="#EB4335"/>
</svg>
