<svg width="35" height="37" viewBox="0 0 35 37" fill="none" xmlns="http://www.w3.org/2000/svg">
<path d="M17.2732 12.1373C14.1218 12.1373 11.55 14.8303 11.55 18.1302C11.55 21.4301 14.1218 24.1231 17.2732 24.1231C20.4246 24.1231 22.9964 21.4301 22.9964 18.1302C22.9964 14.8303 20.4246 12.1373 17.2732 12.1373ZM34.4385 18.1302C34.4385 15.6485 34.46 13.1893 34.3269 10.7121C34.1938 7.83484 33.567 5.28123 31.5576 3.17719C29.544 1.06867 27.1096 0.416777 24.3618 0.277407C21.9918 0.138038 19.6432 0.160517 17.2775 0.160517C14.9075 0.160517 12.559 0.138038 10.1933 0.277407C7.44547 0.416777 5.00678 1.07316 2.99743 3.17719C0.983793 5.28572 0.361239 7.83484 0.228142 10.7121C0.095044 13.1938 0.116511 15.653 0.116511 18.1302C0.116511 20.6074 0.095044 23.0711 0.228142 25.5483C0.361239 28.4256 0.988087 30.9792 2.99743 33.0832C5.01107 35.1917 7.44547 35.8436 10.1933 35.983C12.5633 36.1224 14.9118 36.0999 17.2775 36.0999C19.6475 36.0999 21.9961 36.1224 24.3618 35.983C27.1096 35.8436 29.5483 35.1872 31.5576 33.0832C33.5713 30.9747 34.1938 28.4256 34.3269 25.5483C34.4643 23.0711 34.4385 20.6119 34.4385 18.1302ZM17.2732 27.3511C12.4001 27.3511 8.46732 23.2329 8.46732 18.1302C8.46732 13.0275 12.4001 8.90933 17.2732 8.90933C22.1463 8.90933 26.0791 13.0275 26.0791 18.1302C26.0791 23.2329 22.1463 27.3511 17.2732 27.3511ZM26.4398 10.6852C25.302 10.6852 24.3832 9.72307 24.3832 8.53168C24.3832 7.3403 25.302 6.3782 26.4398 6.3782C27.5776 6.3782 28.4964 7.3403 28.4964 8.53168C28.4967 8.81458 28.4437 9.09477 28.3405 9.35621C28.2373 9.61764 28.0858 9.85518 27.8948 10.0552C27.7037 10.2553 27.4769 10.4139 27.2272 10.522C26.9776 10.6301 26.71 10.6855 26.4398 10.6852Z" fill="#F42DBC"/>
<path d="M17.2732 12.1373C14.1218 12.1373 11.55 14.8303 11.55 18.1302C11.55 21.4301 14.1218 24.1231 17.2732 24.1231C20.4246 24.1231 22.9964 21.4301 22.9964 18.1302C22.9964 14.8303 20.4246 12.1373 17.2732 12.1373ZM34.4385 18.1302C34.4385 15.6485 34.46 13.1893 34.3269 10.7121C34.1938 7.83484 33.567 5.28123 31.5576 3.17719C29.544 1.06867 27.1096 0.416777 24.3618 0.277407C21.9918 0.138038 19.6432 0.160517 17.2775 0.160517C14.9075 0.160517 12.559 0.138038 10.1933 0.277407C7.44547 0.416777 5.00678 1.07316 2.99743 3.17719C0.983793 5.28572 0.361239 7.83484 0.228142 10.7121C0.095044 13.1938 0.116511 15.653 0.116511 18.1302C0.116511 20.6074 0.095044 23.0711 0.228142 25.5483C0.361239 28.4256 0.988087 30.9792 2.99743 33.0832C5.01107 35.1917 7.44547 35.8436 10.1933 35.983C12.5633 36.1224 14.9118 36.0999 17.2775 36.0999C19.6475 36.0999 21.9961 36.1224 24.3618 35.983C27.1096 35.8436 29.5483 35.1872 31.5576 33.0832C33.5713 30.9747 34.1938 28.4256 34.3269 25.5483C34.4643 23.0711 34.4385 20.6119 34.4385 18.1302ZM17.2732 27.3511C12.4001 27.3511 8.46732 23.2329 8.46732 18.1302C8.46732 13.0275 12.4001 8.90933 17.2732 8.90933C22.1463 8.90933 26.0791 13.0275 26.0791 18.1302C26.0791 23.2329 22.1463 27.3511 17.2732 27.3511ZM26.4398 10.6852C25.302 10.6852 24.3832 9.72307 24.3832 8.53168C24.3832 7.3403 25.302 6.3782 26.4398 6.3782C27.5776 6.3782 28.4964 7.3403 28.4964 8.53168C28.4967 8.81458 28.4437 9.09477 28.3405 9.35621C28.2373 9.61764 28.0858 9.85518 27.8948 10.0552C27.7037 10.2553 27.4769 10.4139 27.2272 10.522C26.9776 10.6301 26.71 10.6855 26.4398 10.6852Z" fill="url(#paint0_linear_94_201)"/>
<defs>
<linearGradient id="paint0_linear_94_201" x1="17.2778" y1="0.15918" x2="17.2621" y2="55.5408" gradientUnits="userSpaceOnUse">
<stop offset="0.345365" stop-color="#F4C82D" stop-opacity="0"/>
<stop offset="0.758604" stop-color="#F4C82D"/>
</linearGradient>
</defs>
</svg>
