<svg width="35" height="32" viewBox="0 0 35 32" fill="none" xmlns="http://www.w3.org/2000/svg">
<path d="M31.2513 10.0308H21.7532L23.6538 4.48558C23.9957 3.48423 23.8231 2.37419 23.1884 1.51778C22.5537 0.66137 21.5247 0.14917 20.4399 0.14917H17.7116C17.209 0.14917 16.7334 0.366566 16.4101 0.74207L8.45561 10.0308H4.17201C2.30524 10.0308 0.787109 11.5081 0.787109 13.3247V28.1472C0.787109 29.9638 2.30524 31.4411 4.17201 31.4411H26.6935C27.3821 31.4389 28.0539 31.2333 28.6199 30.8516C29.1859 30.4699 29.6195 29.9301 29.8634 29.3034L34.5295 17.1967C34.6004 17.0118 34.6365 16.816 34.6362 16.6186V13.3247C34.6362 11.5081 33.118 10.0308 31.2513 10.0308ZM4.17201 13.3247H7.55692V28.1472H4.17201V13.3247ZM31.2513 16.3205L26.6935 28.1472H10.9418V12.274L18.5037 3.44306H20.4433L17.7996 11.1557C17.7138 11.4033 17.6899 11.6672 17.7298 11.9255C17.7697 12.1839 17.8724 12.4293 18.0292 12.6413C18.1861 12.8534 18.3926 13.026 18.6317 13.1448C18.8708 13.2637 19.1356 13.3253 19.4041 13.3247H31.2513V16.3205Z" fill="#628AF1"/>
</svg>
