<svg width="36" height="36" viewBox="0 0 36 36" fill="none" xmlns="http://www.w3.org/2000/svg">
<path d="M35.9713 18.302C35.9713 15.8698 34.0771 14.5958 31.5142 14.5958H24.0485C24.6056 12.511 24.8285 10.542 24.8285 8.80473C24.8285 2.08712 23.0456 0.697266 21.4856 0.697266C20.4828 0.697266 19.7028 0.813087 18.6999 1.39219C18.3656 1.62383 18.2542 1.85547 18.1428 2.20294L17.0285 8.45727C15.8028 11.7003 12.7942 14.5958 10.3428 16.5647V33.1271C11.2342 33.1271 12.1256 33.5904 13.2399 34.1695C14.4656 34.7486 15.6913 35.4435 17.0285 35.4435H27.6142C29.8428 35.4435 31.5142 33.5904 31.5142 31.9689C31.5142 31.6214 31.5142 31.3898 31.4028 31.1582C32.7399 30.5791 33.7428 29.4209 33.7428 27.9152C33.7428 27.2203 33.6313 26.6411 33.4085 26.062C34.2999 25.4829 35.0799 24.4406 35.0799 23.2823C35.0799 22.5874 34.7456 21.8925 34.4113 21.3134C35.3028 20.6185 35.9713 19.4603 35.9713 18.302ZM33.6313 18.302C33.6313 19.8077 32.1828 19.9235 31.9599 20.6185C31.7371 21.4292 32.8513 21.6608 32.8513 23.0507C32.8513 24.4406 31.1799 24.4406 30.9571 25.2513C30.7342 26.1779 31.5142 26.4095 31.5142 27.7994V28.031C31.2913 29.1892 29.6199 29.305 29.2856 29.7683C28.9513 30.3474 29.2856 30.5791 29.2856 31.8531C29.2856 32.548 28.5056 33.0113 27.6142 33.0113H17.0285C16.1371 33.0113 15.2456 32.548 14.1313 31.9689C13.2399 31.5056 12.3485 31.0423 11.4571 30.8107V18.6495C14.2428 16.4489 17.8085 13.2059 19.1456 9.15219V8.92055L20.1485 3.12951C20.5942 3.01368 20.9285 3.01368 21.4856 3.01368C21.7085 3.01368 22.5999 4.40353 22.5999 8.80473C22.5999 10.542 22.2656 12.3952 21.7085 14.5958H21.4856C20.8171 14.5958 20.3713 15.0591 20.3713 15.754C20.3713 16.4489 20.8171 16.9122 21.4856 16.9122H31.5142C32.6285 16.9122 33.6313 17.4913 33.6313 18.302Z" fill="#948E8E"/>
<path d="M9.22874 35.4436H2.54302C1.31731 35.4436 0.314453 34.4012 0.314453 33.1272V16.9124C0.314453 15.6383 1.31731 14.5959 2.54302 14.5959H9.22874C10.4545 14.5959 11.4573 15.6383 11.4573 16.9124V33.1272C11.4573 34.4012 10.4545 35.4436 9.22874 35.4436ZM2.54302 16.9124V33.1272H9.22874V16.9124H2.54302Z" fill="#948E8E"/>
</svg>
