<svg width="36" height="37" viewBox="0 0 36 37" fill="none" xmlns="http://www.w3.org/2000/svg">
<path d="M32.5273 0.88623H3.71983C2.19665 0.88623 0.960938 2.18013 0.960938 3.77504V33.9391C0.960938 35.534 2.19665 36.8279 3.71983 36.8279H32.5273C34.0504 36.8279 35.2862 35.534 35.2862 33.9391V3.77504C35.2862 2.18013 34.0504 0.88623 32.5273 0.88623ZM32.5273 33.9525C13.3137 33.9481 3.70695 33.9436 3.70695 33.9391C3.71125 13.8207 3.71554 3.76156 3.71983 3.76156C22.9334 3.76606 32.5401 3.77055 32.5401 3.77504C32.5358 23.8934 32.5316 33.9525 32.5273 33.9525ZM6.04965 14.3599H11.1427V31.513H6.04965V14.3599ZM8.5983 12.0147C10.2245 12.0147 11.5503 10.6309 11.5503 8.92368C11.5503 8.51777 11.4739 8.11583 11.3256 7.74081C11.1772 7.3658 10.9598 7.02505 10.6857 6.73803C10.4115 6.451 10.0861 6.22332 9.72797 6.06799C9.36982 5.91265 8.98596 5.8327 8.5983 5.8327C8.21064 5.8327 7.82678 5.91265 7.46863 6.06799C7.11048 6.22332 6.78506 6.451 6.51094 6.73803C6.23683 7.02505 6.01939 7.3658 5.87104 7.74081C5.72268 8.11583 5.64633 8.51777 5.64633 8.92368C5.64204 10.6309 6.96356 12.0147 8.5983 12.0147ZM19.4236 23.0263C19.4236 20.7889 19.8312 18.6234 22.4786 18.6234C25.0873 18.6234 25.1259 21.1798 25.1259 23.1701V31.513H30.2146V22.1053C30.2146 17.4868 29.2621 13.933 24.109 13.933C21.6333 13.933 19.9728 15.3572 19.2906 16.705H19.222V14.3599H14.3349V31.513H19.4236V23.0263Z" fill="#658EF8"/>
</svg>
