<svg width="38" height="28" viewBox="0 0 38 28" fill="none" xmlns="http://www.w3.org/2000/svg">
<path d="M23.9316 17.4824C23.9316 12.5345 25.1198 8.66081 27.4961 5.86133C29.9049 3.06185 33.2741 1.22266 37.6035 0.34375V5.42188C34.3158 6.43099 32.1022 8.25391 30.9629 10.8906C30.3118 12.2904 30.0514 13.6413 30.1816 14.9434H37.8477V27.7852H23.9316V17.4824ZM0.787109 17.4824C0.787109 12.5996 1.94271 8.74219 4.25391 5.91016C6.59766 3.07812 9.99935 1.22266 14.459 0.34375V5.42188C11.1387 6.46354 8.90885 8.25391 7.76953 10.793C7.18359 12.1276 6.93945 13.5111 7.03711 14.9434H14.7031V27.7852H0.787109V17.4824Z" fill="#88067B" fill-opacity="0.25"/>
</svg>
