<svg width="32" height="34" viewBox="0 0 32 34" fill="none" xmlns="http://www.w3.org/2000/svg">
<path d="M0 17C0 20.1242 2.53365 22.6667 5.64706 22.6667C7.14165 22.6667 8.49318 22.0717 9.504 21.1178L20.7812 27.5853C20.7473 27.8309 20.7059 28.0764 20.7059 28.3333C20.7059 31.4576 23.2395 34 26.3529 34C29.4664 34 32 31.4576 32 28.3333C32 25.2091 29.4664 22.6667 26.3529 22.6667C24.8584 22.6667 23.5068 23.2617 22.496 24.2156L11.2188 17.7499C11.2527 17.5024 11.2941 17.2569 11.2941 17C11.2941 16.7431 11.2527 16.4976 11.2188 16.2501L22.496 9.78444C23.5068 10.7383 24.8584 11.3333 26.3529 11.3333C29.4664 11.3333 32 8.79089 32 5.66667C32 2.54244 29.4664 0 26.3529 0C23.2395 0 20.7059 2.54244 20.7059 5.66667C20.7059 5.92356 20.7473 6.16911 20.7812 6.41655L9.504 12.8822C8.46307 11.8899 7.0828 11.3357 5.64706 11.3333C2.53365 11.3333 0 13.8758 0 17Z" fill="#D13434"/>
</svg>
