<svg width="38" height="32" viewBox="0 0 38 32" fill="none" xmlns="http://www.w3.org/2000/svg">
<path d="M37.5389 4.57053C36.1823 5.17749 34.7249 5.5876 33.1928 5.77297C34.7736 4.81789 35.9563 3.31472 36.5202 1.54392C35.035 2.43466 33.4095 3.06165 31.7143 3.39762C30.5744 2.16871 29.0645 1.35416 27.4192 1.08045C25.7738 0.806744 24.0849 1.08918 22.6148 1.88391C21.1446 2.67863 19.9755 3.94119 19.2889 5.47556C18.6022 7.00993 18.4365 8.73027 18.8175 10.3695C15.808 10.2169 12.864 9.42712 10.1764 8.05138C7.48878 6.67564 5.11773 4.74468 3.21709 2.38382C2.56721 3.51573 2.19353 4.82808 2.19353 6.22573C2.1928 7.48394 2.49967 8.72287 3.08692 9.83261C3.67416 10.9424 4.52361 11.8886 5.55991 12.5873C4.35808 12.5487 3.18276 12.2208 2.13179 11.631V11.7294C2.13167 13.4941 2.73623 15.2045 3.8429 16.5703C4.94956 17.9362 6.49016 18.8734 8.20329 19.2229C7.0884 19.5276 5.91951 19.5724 4.78492 19.3542C5.26827 20.8726 6.20978 22.2004 7.47765 23.1516C8.74552 24.1029 10.2763 24.6301 11.8556 24.6593C9.17459 26.7844 5.86354 27.9371 2.4551 27.932C1.85133 27.9322 1.24808 27.8966 0.648438 27.8254C4.1082 30.0714 8.13561 31.2634 12.2488 31.2588C26.1725 31.2588 33.7842 19.615 33.7842 9.51645C33.7842 9.18836 33.7761 8.85699 33.7615 8.5289C35.242 7.44781 36.5201 6.10909 37.5356 4.57545L37.5389 4.57053Z" fill="#0072DB"/>
</svg>
