<svg width="47" height="33" viewBox="0 0 47 33" fill="none" xmlns="http://www.w3.org/2000/svg">
<path d="M23.4956 32.192H23.4503C23.3099 32.192 9.26559 32.1646 5.72224 31.193C4.76483 30.9325 3.89197 30.4227 3.19104 29.7146C2.49011 29.0065 1.98571 28.1249 1.72833 27.158C1.09117 23.5285 0.783479 19.8479 0.809094 16.1619C0.792644 12.4699 1.10866 8.78397 1.75323 5.14973C2.01789 4.18128 2.52462 3.29777 3.2248 2.58398C3.92498 1.8702 4.79511 1.35011 5.75167 1.07362C9.19767 0.15918 22.8549 0.15918 23.4345 0.15918H23.482C23.6247 0.15918 37.7052 0.186612 41.2124 1.1582C43.1572 1.69087 44.6765 3.22484 45.2017 5.1886C45.8583 8.83264 46.1685 12.5293 46.1232 16.2327C46.1391 19.9203 45.8223 23.6016 45.1768 27.2312C44.9161 28.1969 44.4097 29.0771 43.7079 29.7841C43.006 30.4911 42.1332 31.0005 41.1761 31.2616C37.7347 32.1829 24.0752 32.192 23.4956 32.192ZM18.9674 9.31501L18.956 23.0316L30.7566 16.1733L18.9674 9.31501Z" fill="#E20A17"/>
</svg>
